<svg width="322" height="247" viewBox="0 0 322 247" fill="none" xmlns="http://www.w3.org/2000/svg">
<path fill-rule="evenodd" clip-rule="evenodd" d="M104.88 28.7719C125.232 -6.94981 166.564 -6.46441 201.816 14.1597C237.068 34.7839 242.561 66.1132 222.209 101.835L221.727 102.668C200.988 137.764 145.829 150.712 110.853 130.249L110.035 129.762C75.7413 108.921 84.6858 64.2152 104.88 28.7719ZM165.218 108.796C149.934 112.612 135.131 110.707 125.273 104.939C118.564 101.014 115.648 95.7438 115.849 85.7691C116.083 74.1705 121.033 58.8699 129.856 43.3846C135.152 34.0894 142.105 30.2879 150.653 29.4143C160.394 28.419 173.503 31.342 187.395 39.4695C200.042 46.8684 203.656 53.8265 204.7 58.6272C205.872 64.0147 205.211 73.218 197.232 87.2227C191.919 96.5483 180.519 104.975 165.218 108.796Z" fill="black"/>
<path d="M125.273 104.939C135.131 110.707 149.934 112.612 165.218 108.796C180.519 104.975 191.919 96.5483 197.232 87.2227C205.211 73.218 205.872 64.0147 204.7 58.6272C203.656 53.8265 200.042 46.8684 187.395 39.4695C173.503 31.342 160.394 28.419 150.653 29.4143C142.105 30.2879 135.152 34.0894 129.856 43.3846C121.033 58.8699 116.083 74.1705 115.849 85.7691C115.648 95.7438 118.564 101.014 125.273 104.939Z" fill="white"/>
<path d="M81.7925 246.844C75.69 246.844 70.4733 245.578 66.1425 243.047C61.8773 240.515 58.662 237.285 56.4966 233.354C54.3968 229.357 53.3469 225.194 53.3469 220.864V219.265C53.3469 214.869 54.4296 210.672 56.595 206.675C58.8261 202.678 62.0742 199.448 66.3394 196.983C70.6046 194.518 75.7228 193.286 81.694 193.286C87.6653 193.286 92.7835 194.518 97.0487 196.983C101.38 199.448 104.628 202.678 106.793 206.675C109.024 210.672 110.14 214.869 110.14 219.265V221.264C110.14 221.93 110.107 222.596 110.041 223.262H68.4063C68.9313 226.793 70.3421 229.524 72.6387 231.456C75.001 233.388 78.0522 234.387 81.7925 234.453C84.8109 234.387 87.37 233.687 89.4698 232.355C91.5696 231.023 93.1116 229.124 94.0959 226.66H109.451C108.598 230.323 106.99 233.687 104.628 236.752C102.331 239.749 99.247 242.181 95.3755 244.046C91.504 245.911 86.9763 246.844 81.7925 246.844ZM94.2928 213.77C93.3741 211.172 91.8321 209.173 89.6667 207.774C87.5013 206.375 84.8437 205.676 81.694 205.676C78.5444 205.676 75.8868 206.375 73.7214 207.774C71.6216 209.173 70.1124 211.172 69.1938 213.77H94.2928Z" fill="black"/>
<path d="M147.144 246.744C144.322 246.744 140.844 246.933 137.596 244.945C135.42 243.613 134.422 242.417 132.973 240.298C131.063 237.506 129.919 234.488 129.919 232.165V244.945H115.056V175H129.919V199.481C134.053 194.685 139.794 192.286 147.144 192.286C152.393 192.286 157.118 193.486 161.317 195.884C165.517 198.215 168.798 201.413 171.16 205.476C173.522 209.473 174.703 213.836 174.703 218.566V220.464C174.703 225.194 173.522 229.591 171.16 233.654C168.798 237.651 165.517 240.848 161.317 243.247C157.118 245.578 152.393 246.744 147.144 246.744ZM145.47 234.154C149.736 234.154 153.181 232.855 155.805 230.257C158.496 227.592 159.841 224.062 159.841 219.665C159.841 214.536 158.43 210.805 155.608 208.474C152.787 206.076 149.408 204.877 145.47 204.877C141.337 204.877 137.957 206.076 135.332 208.474C132.773 210.872 131.494 214.003 131.494 217.866V221.164C131.494 225.028 132.773 228.158 135.332 230.557C137.957 232.955 141.337 234.154 145.47 234.154Z" fill="black"/>
<path d="M244.341 175H259.302V244.945H244.242L244.341 175Z" fill="black"/>
<path d="M292.681 246.844C286.579 246.844 281.362 245.578 277.031 243.047C272.766 240.515 269.551 237.285 267.385 233.354C265.285 229.357 264.236 225.194 264.236 220.864V219.265C264.236 214.869 265.318 210.672 267.484 206.675C269.715 202.678 272.963 199.448 277.228 196.983C281.493 194.518 286.611 193.286 292.583 193.286C298.554 193.286 303.672 194.518 307.937 196.983C312.268 199.448 315.516 202.678 317.682 206.675C319.913 210.672 321.028 214.869 321.028 219.265V221.264C321.028 221.93 320.995 222.596 320.93 223.262H279.295C279.82 226.793 281.231 229.524 283.527 231.456C285.89 233.388 288.941 234.387 292.681 234.453C295.7 234.387 298.259 233.687 300.358 232.355C302.458 231.023 304 229.124 304.985 226.66H320.339C319.486 230.323 317.879 233.687 315.516 236.752C313.22 239.749 310.136 242.181 306.264 244.046C302.393 245.911 297.865 246.844 292.681 246.844ZM305.181 213.77C304.263 211.172 302.721 209.173 300.555 207.774C298.39 206.375 295.732 205.676 292.583 205.676C289.433 205.676 286.775 206.375 284.61 207.774C282.51 209.173 281.001 211.172 280.082 213.77H305.181Z" fill="black"/>
<path d="M211.47 246.844C208.649 246.844 205.17 247.033 201.923 245.045C199.747 243.713 198.748 242.517 197.299 240.398C195.39 237.606 194.246 234.588 194.246 232.265V245.045H179.383V175.1H194.246V199.581C198.379 194.785 204.121 192.386 211.47 192.386C216.72 192.386 221.444 193.585 225.644 195.984C229.843 198.315 233.124 201.513 235.487 205.576C237.849 209.573 239.03 213.936 239.03 218.666V220.564C239.03 225.294 237.849 229.691 235.487 233.754C233.124 237.751 229.843 240.948 225.644 243.347C221.444 245.678 216.72 246.844 211.47 246.844ZM209.797 234.254C214.062 234.254 217.507 232.955 220.132 230.357C222.822 227.692 224.167 224.162 224.167 219.765C224.167 214.636 222.757 210.905 219.935 208.574C217.114 206.176 213.734 204.977 209.797 204.977C205.663 204.977 202.284 206.176 199.659 208.574C197.1 210.972 195.82 214.103 195.82 217.966V221.264C195.82 225.127 197.1 228.258 199.659 230.656C202.284 233.055 205.663 234.254 209.797 234.254Z" fill="black"/>
<path fill-rule="evenodd" clip-rule="evenodd" d="M0 175H24.0163C32.9404 175 39.8959 177.098 44.8829 181.295C49.8699 185.425 52.3634 191.087 52.3634 198.282V199.681C52.3634 204.344 51.2479 208.44 49.0169 211.971C46.8515 215.435 43.6362 218.133 39.371 220.065C35.1058 221.997 29.9876 222.962 24.0163 222.962H14.7641H6.69538C6.69538 222.962 14.7641 222.962 14.7641 229.987V232.345V235.916V244.945H0V175ZM34.4496 207.075C32.4811 209.073 29.5611 210.073 25.6896 210.073H14.7641V187.99H25.6896C29.5611 187.99 32.4811 188.989 34.4496 190.987C36.4182 192.919 37.4025 195.584 37.4025 198.981C37.4025 202.312 36.4182 205.01 34.4496 207.075Z" fill="black"/>
</svg>
