<svg width="435" height="83" viewBox="0 0 435 83" fill="none" xmlns="http://www.w3.org/2000/svg">
<path d="M195.763 77.0784C189.661 77.0784 184.444 75.8127 180.113 73.2814C175.848 70.75 172.633 67.5192 170.467 63.5889C168.368 59.5921 167.318 55.4287 167.318 51.0987V49.5C167.318 45.1034 168.4 40.9067 170.566 36.9098C172.797 32.913 176.045 29.6821 180.31 27.2174C184.575 24.7527 189.693 23.5203 195.665 23.5203C201.636 23.5203 206.754 24.7527 211.019 27.2174C215.35 29.6821 218.598 32.913 220.764 36.9098C222.995 40.9067 224.11 45.1034 224.11 49.5V51.4984C224.11 52.1645 224.077 52.8307 224.012 53.4968H182.377C182.902 57.0274 184.313 59.7586 186.609 61.6904C188.972 63.6222 192.023 64.6215 195.763 64.6881C198.782 64.6215 201.341 63.922 203.441 62.5897C205.54 61.2574 207.082 59.3589 208.067 56.8942H223.421C222.568 60.558 220.961 63.922 218.598 66.9863C216.302 69.9839 213.218 72.4154 209.346 74.2806C205.475 76.1458 200.947 77.0784 195.763 77.0784ZM208.263 44.0043C207.345 41.4063 205.803 39.4079 203.637 38.009C201.472 36.6101 198.814 35.9106 195.665 35.9106C192.515 35.9106 189.858 36.6101 187.692 38.009C185.592 39.4079 184.083 41.4063 183.164 44.0043H208.263Z" fill="black"/>
<path d="M261.114 76.9785C258.293 76.9785 254.814 77.1679 251.567 75.1799C249.391 73.8477 248.392 72.6513 246.943 70.5323C245.034 67.7403 243.89 64.7229 243.89 62.3992V75.1799H229.027V5.23462H243.89V29.7155C248.024 24.9192 253.765 22.5211 261.114 22.5211C266.364 22.5211 271.088 23.7201 275.288 26.1183C279.488 28.4498 282.768 31.6473 285.131 35.7108C287.493 39.7076 288.674 44.0709 288.674 48.8005V50.699C288.674 55.4287 287.493 59.8252 285.131 63.8887C282.768 67.8856 279.488 71.0831 275.288 73.4812C271.088 75.8127 266.364 76.9785 261.114 76.9785ZM259.441 64.3883C263.706 64.3883 267.151 63.0893 269.776 60.4914C272.466 57.8268 273.812 54.2962 273.812 49.8997C273.812 44.7703 272.401 41.0399 269.579 38.7084C266.758 36.3103 263.378 35.1112 259.441 35.1112C255.307 35.1112 251.928 36.3103 249.303 38.7084C246.744 41.1065 245.464 44.2374 245.464 48.1011V51.3985C245.464 55.2621 246.744 58.393 249.303 60.7911C251.928 63.1893 255.307 64.3883 259.441 64.3883Z" fill="black"/>
<path d="M358.312 5.23462H373.273V75.1799H358.213L358.312 5.23462Z" fill="black"/>
<path d="M406.652 77.0784C400.549 77.0784 395.333 75.8127 391.002 73.2814C386.737 70.75 383.521 67.5192 381.356 63.5889C379.256 59.5921 378.206 55.4287 378.206 51.0987V49.5C378.206 45.1034 379.289 40.9067 381.454 36.9098C383.685 32.913 386.933 29.6821 391.199 27.2174C395.464 24.7527 400.582 23.5203 406.553 23.5203C412.525 23.5203 417.643 24.7527 421.908 27.2174C426.239 29.6821 429.487 32.913 431.652 36.9098C433.883 40.9067 434.999 45.1034 434.999 49.5V51.4984C434.999 52.1645 434.966 52.8307 434.9 53.4968H393.266C393.791 57.0274 395.201 59.7586 397.498 61.6904C399.86 63.6222 402.912 64.6215 406.652 64.6881C409.67 64.6215 412.229 63.922 414.329 62.5897C416.429 61.2574 417.971 59.3589 418.955 56.8942H434.31C433.457 60.558 431.849 63.922 429.487 66.9863C427.19 69.9839 424.106 72.4154 420.235 74.2806C416.363 76.1458 411.836 77.0784 406.652 77.0784ZM419.152 44.0043C418.233 41.4063 416.691 39.4079 414.526 38.009C412.361 36.6101 409.703 35.9106 406.553 35.9106C403.404 35.9106 400.746 36.6101 398.581 38.009C396.481 39.4079 394.972 41.4063 394.053 44.0043H419.152Z" fill="black"/>
<path d="M325.441 77.0784C322.619 77.0784 319.141 77.2679 315.894 75.2798C313.718 73.9477 312.719 72.7512 311.27 70.6323C309.36 67.8402 308.216 64.8229 308.216 62.4991V75.2798H293.354V5.33459H308.216V29.8154C312.35 25.0192 318.092 22.6211 325.441 22.6211C330.691 22.6211 335.415 23.8201 339.615 26.2182C343.814 28.5497 347.095 31.7472 349.457 35.8107C351.82 39.8076 353.001 44.1708 353.001 48.9005V50.799C353.001 55.5286 351.82 59.9252 349.457 63.9887C347.095 67.9855 343.814 71.183 339.615 73.5812C335.415 75.9127 330.691 77.0784 325.441 77.0784ZM323.768 64.4883C328.033 64.4883 331.478 63.1893 334.103 60.5913C336.793 57.9267 338.138 54.3962 338.138 49.9996C338.138 44.8703 336.727 41.1399 333.906 38.8084C331.084 36.4103 327.705 35.2112 323.768 35.2112C319.634 35.2112 316.254 36.4103 313.63 38.8084C311.071 41.2065 309.791 44.3374 309.791 48.201V51.4984C309.791 55.3621 311.071 58.493 313.63 60.8911C316.254 63.2892 319.634 64.4883 323.768 64.4883Z" fill="black"/>
<path fill-rule="evenodd" clip-rule="evenodd" d="M113.971 5.23462H137.987C146.911 5.23462 153.867 7.33298 158.854 11.5297C163.841 15.6598 166.334 21.322 166.334 28.5164V29.9153C166.334 34.5783 165.219 38.6751 162.988 42.2057C160.822 45.6696 157.607 48.3675 153.342 50.2993C149.077 52.2312 143.958 53.1971 137.987 53.1971H128.735H120.666C120.666 53.1971 128.735 53.1971 128.735 60.2218V62.5795V66.1504V75.1799H113.971V5.23462ZM148.42 37.3095C146.452 39.3079 143.532 40.3072 139.66 40.3072H128.735V18.2244H139.66C143.532 18.2244 146.452 19.2237 148.42 21.2221C150.389 23.1539 151.373 25.8185 151.373 29.2158C151.373 32.5466 150.389 35.2445 148.42 37.3095Z" fill="black"/>
<path fill-rule="evenodd" clip-rule="evenodd" d="M10.5813 17.2093C22.5751 -3.86741 46.9316 -3.58101 67.7053 8.58771C88.4791 20.7565 91.7166 39.2416 79.7228 60.3186L79.4389 60.8101C67.2175 81.5173 34.7128 89.1571 14.1012 77.0833L13.6196 76.7958C-6.58979 64.4991 -1.31882 38.1218 10.5813 17.2093ZM46.1386 64.4254C37.1319 66.6773 28.4084 65.5528 22.599 62.1498C18.6456 59.8339 16.9273 56.7244 17.0455 50.8391C17.1831 43.9956 20.1007 34.9679 25.2999 25.8312C28.4209 20.3467 32.5179 18.1038 37.5553 17.5883C43.2954 17.0011 51.021 18.7257 59.2075 23.5212C66.66 27.8867 68.7897 31.9922 69.4051 34.8247C70.0957 38.0034 69.7063 43.4336 65.0042 51.6968C61.873 57.1991 55.1553 62.171 46.1386 64.4254Z" fill="black"/>
<path d="M22.599 62.1498C28.4084 65.5528 37.1319 66.6773 46.1386 64.4254C55.1553 62.171 61.873 57.1991 65.0042 51.6968C69.7063 43.4336 70.0957 38.0034 69.4051 34.8247C68.7897 31.9922 66.66 27.8867 59.2075 23.5212C51.021 18.7257 43.2954 17.0011 37.5553 17.5883C32.5179 18.1038 28.4209 20.3467 25.2999 25.8312C20.1007 34.9679 17.1831 43.9956 17.0455 50.8391C16.9273 56.7244 18.6456 59.8339 22.599 62.1498Z" fill="white"/>
</svg>
