<svg width="87" height="83" viewBox="0 0 87 83" fill="none" xmlns="http://www.w3.org/2000/svg">
<path fill-rule="evenodd" clip-rule="evenodd" d="M10.5813 17.2093C22.5751 -3.86741 46.9316 -3.58101 67.7053 8.58771C88.4791 20.7565 91.7166 39.2416 79.7228 60.3186L79.4389 60.8101C67.2175 81.5173 34.7128 89.1571 14.1012 77.0833L13.6196 76.7958C-6.58979 64.4991 -1.31882 38.1218 10.5813 17.2093ZM46.1386 64.4254C37.1319 66.6773 28.4084 65.5528 22.599 62.1498C18.6456 59.8339 16.9273 56.7244 17.0455 50.8391C17.1831 43.9956 20.1007 34.9679 25.2999 25.8312C28.4209 20.3467 32.5179 18.1038 37.5553 17.5883C43.2954 17.0011 51.021 18.7257 59.2075 23.5212C66.66 27.8867 68.7897 31.9922 69.4051 34.8247C70.0957 38.0034 69.7063 43.4336 65.0042 51.6968C61.873 57.1991 55.1553 62.171 46.1386 64.4254Z" fill="white"/>
<path d="M22.599 62.1498C28.4084 65.5528 37.1319 66.6773 46.1386 64.4254C55.1553 62.171 61.873 57.1991 65.0042 51.6968C69.7063 43.4336 70.0957 38.0034 69.4051 34.8247C68.7897 31.9922 66.66 27.8867 59.2075 23.5212C51.021 18.7257 43.2954 17.0011 37.5553 17.5883C32.5179 18.1038 28.4209 20.3467 25.2999 25.8312C20.1007 34.9679 17.1831 43.9956 17.0455 50.8391C16.9273 56.7244 18.6456 59.8339 22.599 62.1498Z" fill="black"/>
</svg>
